# xmcd
#
# Track frame offsets:
#  150
#  15250
#  24865
#  41425
#  52530
#  65955
#  78440
#  92355
#  107697
#  122075
#  137960
#  159672
#  165520
#
# Disc length: 2354 seconds
#
# Revision: 0
# Processed by: cddbd v1.4PL0 Copyright (c) Steve Scherf et al.
# Submitted via: AltoMP3_Maker 3.0
#
DISCID=9309300d
DTITLE=Larry Rice - Notions and Novelties
DYEAR=1900
DGENRE=
TTITLE0=Aunt Mary's Spring
TTITLE1=Coo Coo's Nest
TTITLE2=Take Me Back To The Country
TTITLE3=Cody Cody
TTITLE4=William Tell
TTITLE5=Ribbon Of Darkness
TTITLE6=Dust On Your Bible
TTITLE7=Unemployment Line
TTITLE8=Frying Fish
TTITLE9=Get Together
TTITLE10=Pretty Polly
TTITLE11=Strodes Creek
TTITLE12=Woodburning Stove
EXTD=
EXTT0=
EXTT1=
EXTT2=
EXTT3=
EXTT4=
EXTT5=
EXTT6=
EXTT7=
EXTT8=
EXTT9=
EXTT10=
EXTT11=
EXTT12=
PLAYORDER=
